<?xml version="1.0" standalone="no"?><!DOCTYPE svg PUBLIC "-//W3C//DTD SVG 1.1//EN" "http://www.w3.org/Graphics/SVG/1.1/DTD/svg11.dtd"><svg t="1678103386149" class="icon" viewBox="0 0 1024 1024" version="1.1" xmlns="http://www.w3.org/2000/svg" p-id="996" xmlns:xlink="http://www.w3.org/1999/xlink" width="200" height="200"><path d="M341.333333 149.333333a21.333333 21.333333 0 1 1 42.666667 0v64a21.333333 21.333333 0 0 1-42.666667 0V149.333333zM618.666667 149.333333a21.333333 21.333333 0 1 1 42.666666 0v64a21.333333 21.333333 0 0 1-42.666666 0V149.333333z" fill="#111111" p-id="997"></path><path d="M746.666667 170.666667h-34.666667v0.064A21.312 21.312 0 0 0 689.066667 192a21.333333 21.333333 0 0 0 22.933333 21.269333V213.333333H746.666667q26.517333 0 45.248 18.752Q810.666667 250.816 810.666667 277.333333v512q0 26.517333-18.752 45.248Q773.184 853.333333 746.666667 853.333333H277.333333q-26.517333 0-45.248-18.752Q213.333333 815.850667 213.333333 789.333333V277.333333q0-26.517333 18.752-45.248Q250.816 213.333333 277.333333 213.333333h34.666667v-0.170666a21.333333 21.333333 0 0 0 0-42.325334V170.666667H277.333333q-44.181333 0-75.434666 31.232Q170.666667 233.173333 170.666667 277.333333v512q0 44.181333 31.232 75.413334Q233.173333 896 277.333333 896h469.333334q44.181333 0 75.413333-31.253333Q853.333333 833.536 853.333333 789.333333V277.333333q0-44.181333-31.253333-75.434666Q790.869333 170.666667 746.666667 170.666667zM432 213.312L430.933333 213.333333a21.333333 21.333333 0 1 1 1.066667-42.645333V170.666667h160v0.021333A21.376 21.376 0 0 1 614.4 192a21.333333 21.333333 0 0 1-22.4 21.312V213.333333h-160v-0.021333z" fill="#111111" p-id="998"></path><path d="M341.333333 384a21.333333 21.333333 0 0 1 21.333334-21.333333h298.666666a21.333333 21.333333 0 1 1 0 42.666666H362.666667a21.333333 21.333333 0 0 1-21.333334-21.333333z" fill="#C0A353" p-id="999"></path><path d="M341.333333 682.666667a21.333333 21.333333 0 0 1 21.333334-21.333334h170.666666a21.333333 21.333333 0 1 1 0 42.666667h-170.666666a21.333333 21.333333 0 0 1-21.333334-21.333333zM341.333333 533.333333a21.333333 21.333333 0 0 1 21.333334-21.333333h298.666666a21.333333 21.333333 0 1 1 0 42.666667H362.666667a21.333333 21.333333 0 0 1-21.333334-21.333334z" fill="#111111" p-id="1000"></path></svg>